<?xml version="1.0" encoding="utf-8"?>
<!-- Generator: Adobe Illustrator 16.0.4, SVG Export Plug-In . SVG Version: 6.00 Build 0)  -->
<!DOCTYPE svg PUBLIC "-//W3C//DTD SVG 1.1//EN" "http://www.w3.org/Graphics/SVG/1.1/DTD/svg11.dtd">
<svg version="1.1" xmlns="http://www.w3.org/2000/svg" xmlns:xlink="http://www.w3.org/1999/xlink" x="0px" y="0px"
	 width="476.976px" height="431.979px" viewBox="0 0 476.976 431.979" enable-background="new 0 0 476.976 431.979"
	 xml:space="preserve">
<g id="Layer_1" display="none">
	
		<image display="inline" overflow="visible" width="514" height="422" xlink:href="logo.png"  transform="matrix(1 0 0 1 -34.9658 0.0132)">
	</image>
</g>
<g id="Layer_4" display="none">
	<g display="inline">
		<path fill="#59AA11" d="M229.01,183.645c0,0-90.398-27.404-89.793-65.524c0.677-42.783,78.519-91.755,113.459-75.711
			c0,0,14.341,7.422,25.124,29.196c10.782,21.773,8.278,55.039,8.278,55.039s23.937-112.93,93.651-62.29
			c19.468,14.142,39.556,38.57,49.21,57.447c4.574,8.947,13.222,35.96-16.142,54.916c-21.957,14.173-58.825,13.504-58.825,13.504
			s94.814,16.961,70.329,68.785c0,0-13.537,46.06-66.014,71.694c-5.367,2.621-30.496,11.565-50.755-16.2
			c-18.304-25.085-27.057-72.104-27.057-72.104s-22.366,130.07-91.993,76.888c-14.821-11.32-41.206-35.205-51.73-64.6
			c-1.992-5.561-14.003-26.569,16.837-48.298C180.801,187.213,229.01,183.645,229.01,183.645z"/>
		<path display="none" fill="#59AA11" d="M140.179,180.612c0,0-129.923-48.373-125.026-105.692
			C20.648,10.592,140.157-56.964,189.802-30.063c0,0,20.286,12.301,33.839,45.919c13.552,33.617,6.374,83.479,6.374,83.479
			S277.059-68.721,374.15,12.987c27.114,22.818,54.054,61.164,66.252,90.333c5.779,13.825,15.644,55.159-29.488,81.368
			c-33.749,19.597-87.842,15.68-87.842,15.68s137.509,33.004,96.088,109.06c0,0-24.731,68.248-104.521,102.683
			c-8.161,3.523-46.019,14.999-72.862-28.383c-24.252-39.194-32.165-110.644-32.165-110.644S163.073,467.058,66.376,381.533
			c-20.584-18.207-56.833-56.23-69.205-101.299c-2.342-8.524-17.777-41.087,29.817-71.353
			C68.98,182.179,140.179,180.612,140.179,180.612z"/>
	</g>
	<g display="inline">
		<path fill="none" stroke="#59AA11" stroke-miterlimit="10" d="M229.01,183.645c0,0-90.398-27.404-89.793-65.524
			c0.677-42.783,78.519-91.755,113.459-75.711c0,0,14.341,7.422,25.124,29.196c10.782,21.773,8.278,55.039,8.278,55.039
			s23.937-112.93,93.651-62.29c19.468,14.142,39.556,38.57,49.21,57.447c4.574,8.947,13.222,35.96-16.142,54.916
			c-21.957,14.173-58.825,13.504-58.825,13.504s94.814,16.961,70.329,68.785c0,0-13.537,46.06-66.014,71.694
			c-5.367,2.621-30.496,11.565-50.755-16.2c-18.304-25.085-27.057-72.104-27.057-72.104s-22.366,130.07-91.993,76.888
			c-14.821-11.32-41.206-35.205-51.73-64.6c-1.992-5.561-14.003-26.569,16.837-48.298
			C180.801,187.213,229.01,183.645,229.01,183.645z"/>
		<path display="none" fill="#59AA11" d="M140.179,180.612c0,0-129.923-48.373-125.026-105.692
			C20.648,10.592,140.157-56.964,189.802-30.063c0,0,20.286,12.301,33.839,45.919c13.552,33.617,6.374,83.479,6.374,83.479
			S277.059-68.721,374.15,12.987c27.114,22.818,54.054,61.164,66.252,90.333c5.779,13.825,15.644,55.159-29.488,81.368
			c-33.749,19.597-87.842,15.68-87.842,15.68s137.509,33.004,96.088,109.06c0,0-24.731,68.248-104.521,102.683
			c-8.161,3.523-46.019,14.999-72.862-28.383c-24.252-39.194-32.165-110.644-32.165-110.644S163.073,467.058,66.376,381.533
			c-20.584-18.207-56.833-56.23-69.205-101.299c-2.342-8.524-17.777-41.087,29.817-71.353
			C68.98,182.179,140.179,180.612,140.179,180.612z"/>
	</g>
</g>
<g id="Layer_3">
	
		<line fill="none" stroke="#000000" stroke-width="20" stroke-linecap="round" stroke-miterlimit="10" x1="153.034" y1="286.013" x2="153.034" y2="380.013"/>
	
		<line fill="none" stroke="#000000" stroke-width="20" stroke-linecap="round" stroke-miterlimit="10" x1="209.034" y1="312.013" x2="209.034" y2="415.013"/>
	
		<line fill="none" stroke="#000000" stroke-width="20" stroke-linecap="round" stroke-miterlimit="10" x1="356.034" y1="313.013" x2="356.034" y2="379.013"/>
	
		<line fill="none" stroke="#000000" stroke-width="20" stroke-linecap="round" stroke-miterlimit="10" x1="410.034" y1="291.013" x2="410.034" y2="413.013"/>
	<path d="M429.034,116.013c0,0,28.5,4.5,40,18c12.062,14.16,5,31-13,24c-8.677-3.375-16.244-8.414-21-20
		C430.809,127.719,429.034,116.013,429.034,116.013z"/>
</g>
<g id="Layer_5">
	<path fill="#FFFFFF" stroke="#197F0A" stroke-width="16" stroke-miterlimit="10" d="M286.034,106.013c0,0,32.332-39.959,47-51
		c31-23.333,94.534,18.753,109.5,64c9.664,29.217-46.833,78.333-46.833,78.333s53.833,32.167,34.833,64.167
		c-14.406,24.264-43,61.5-81.5,72c-5.119,1.396-19.315,3.281-29.5-4.5c-13.344-10.195-35.5-54.667-35.5-54.667
		s-18.138,30.771-46,51.667c-20,15-48-2-69-16c-9.556-6.37-29.456-27.114-34.905-35.412c-22-33.5,28.405-73.088,28.405-73.088
		s-25.63-26.26-35.905-42.406c-17.5-27.5,52.649-129.859,106.738-98.761C247.144,68.267,286.034,106.013,286.034,106.013z"/>
</g>
<g id="Layer_2">
	<path fill="#FFFFFF" stroke="#020202" stroke-width="16" stroke-miterlimit="10" d="M77.321,29.615c0,0,29.95-15.377,59.011-14.414
		c29.061,0.964,49.314,17.695,49.314,17.695s23.368-8,47.716-3.623c30.574,5.496,31.543,14.664,15.709,29.97
		c-15.959,15.428-46.685,29.908-46.685,29.908s-25.672,103.036-67.75,99.975c-48.912-3.559-69.187-99.47-69.187-99.47
		S25.103,63.925,16.412,51.864c-8.69-12.061,2.83-24.839,28.348-27.971C62.513,21.713,77.321,29.615,77.321,29.615z"/>
</g>
</svg>
