<?xml version="1.0" encoding="utf-8"?>
<!-- Generator: Adobe Illustrator 16.0.4, SVG Export Plug-In . SVG Version: 6.00 Build 0)  -->
<!DOCTYPE svg PUBLIC "-//W3C//DTD SVG 1.1//EN" "http://www.w3.org/Graphics/SVG/1.1/DTD/svg11.dtd">
<svg version="1.1" id="Layer_1" xmlns="http://www.w3.org/2000/svg" xmlns:xlink="http://www.w3.org/1999/xlink" x="0px" y="0px"
	 width="497px" height="432px" viewBox="0 0 497 432" enable-background="new 0 0 497 432" xml:space="preserve">
<g id="Layer_1_1_" display="none">
	
		<image display="inline" overflow="visible" enable-background="new    " width="514" height="422" xlink:href="AEAF528475657957.png"  transform="matrix(1 0 0 1 -75 9)">
	</image>
</g>
<g id="Layer_4" display="none">
	<g display="inline">
		<path fill="#59AA11" d="M188.976,192.632c0,0-90.398-27.404-89.793-65.524c0.677-42.783,78.519-91.755,113.459-75.711
			c0,0,14.341,7.422,25.124,29.196c10.782,21.773,8.278,55.039,8.278,55.039s23.937-112.93,93.651-62.29
			c19.468,14.142,39.556,38.57,49.21,57.447c4.573,8.947,13.222,35.96-16.143,54.916c-21.957,14.173-58.825,13.504-58.825,13.504
			s94.814,16.961,70.329,68.785c0,0-13.536,46.061-66.014,71.693c-5.367,2.621-30.496,11.565-50.755-16.199
			c-18.305-25.086-27.057-72.104-27.057-72.104s-22.366,130.07-91.993,76.888c-14.821-11.319-41.206-35.205-51.73-64.6
			c-1.992-5.561-14.003-26.568,16.837-48.298C140.767,196.2,188.976,192.632,188.976,192.632z"/>
		<path display="none" fill="#59AA11" d="M100.145,189.599c0,0-129.923-48.373-125.026-105.692
			c5.495-64.328,125.003-131.884,174.648-104.983c0,0,20.286,12.301,33.839,45.919c13.552,33.617,6.374,83.479,6.374,83.479
			s47.044-168.055,144.136-86.347c27.114,22.818,54.054,61.164,66.252,90.333c5.778,13.825,15.644,55.159-29.488,81.368
			c-33.749,19.597-87.842,15.68-87.842,15.68s137.509,33.003,96.088,109.06c0,0-24.731,68.248-104.521,102.683
			c-8.162,3.523-46.02,14.999-72.862-28.383C177.49,353.52,169.577,282.07,169.577,282.07S123.039,476.045,26.342,390.52
			C5.758,372.312-30.491,334.29-42.863,289.221c-2.342-8.523-17.777-41.087,29.817-71.353
			C28.946,191.166,100.145,189.599,100.145,189.599z"/>
	</g>
	<g display="inline">
		<path fill="none" stroke="#59AA11" stroke-miterlimit="10" d="M188.976,192.632c0,0-90.398-27.404-89.793-65.524
			c0.677-42.783,78.519-91.755,113.459-75.711c0,0,14.341,7.422,25.124,29.196c10.782,21.773,8.278,55.039,8.278,55.039
			s23.937-112.93,93.651-62.29c19.468,14.142,39.556,38.57,49.21,57.447c4.573,8.947,13.222,35.96-16.143,54.916
			c-21.957,14.173-58.825,13.504-58.825,13.504s94.814,16.961,70.329,68.785c0,0-13.536,46.061-66.014,71.693
			c-5.367,2.621-30.496,11.565-50.755-16.199c-18.305-25.086-27.057-72.104-27.057-72.104s-22.366,130.07-91.993,76.888
			c-14.821-11.319-41.206-35.205-51.73-64.6c-1.992-5.561-14.003-26.568,16.837-48.298
			C140.767,196.2,188.976,192.632,188.976,192.632z"/>
		<path display="none" fill="#59AA11" d="M100.145,189.599c0,0-129.923-48.373-125.026-105.692
			c5.495-64.328,125.003-131.884,174.648-104.983c0,0,20.286,12.301,33.839,45.919c13.552,33.617,6.374,83.479,6.374,83.479
			s47.044-168.055,144.136-86.347c27.114,22.818,54.054,61.164,66.252,90.333c5.778,13.825,15.644,55.159-29.488,81.368
			c-33.749,19.597-87.842,15.68-87.842,15.68s137.509,33.003,96.088,109.06c0,0-24.731,68.248-104.521,102.683
			c-8.162,3.523-46.02,14.999-72.862-28.383C177.49,353.52,169.577,282.07,169.577,282.07S123.039,476.045,26.342,390.52
			C5.758,372.312-30.491,334.29-42.863,289.221c-2.342-8.523-17.777-41.087,29.817-71.353
			C28.946,191.166,100.145,189.599,100.145,189.599z"/>
	</g>
</g>
<g id="Layer_3" display="none">
	
		<line display="inline" fill="none" stroke="#000000" stroke-width="20" stroke-linecap="round" stroke-miterlimit="10" x1="113" y1="291" x2="113" y2="385"/>
	
		<line display="inline" fill="none" stroke="#000000" stroke-width="20" stroke-linecap="round" stroke-miterlimit="10" x1="169" y1="321" x2="169" y2="424"/>
	
		<line display="inline" fill="none" stroke="#000000" stroke-width="20" stroke-linecap="round" stroke-miterlimit="10" x1="316" y1="322" x2="316" y2="388"/>
	
		<line display="inline" fill="none" stroke="#000000" stroke-width="20" stroke-linecap="round" stroke-miterlimit="10" x1="370" y1="300" x2="370" y2="422"/>
</g>
<g id="Layer_8">
	<path fill="none" stroke="#605F5F" stroke-width="20" stroke-linecap="round" stroke-miterlimit="10" d="M119.181,265.15
		c0,0-55.181,64.85-54.344,76.699C65.765,354.973,80.5,378.5,80.5,378.5"/>
	
		<line fill="none" stroke="#605F5F" stroke-width="20" stroke-linecap="round" stroke-miterlimit="10" x1="164.508" y1="315.498" x2="164.508" y2="418.498"/>
	
		<line fill="none" stroke="#605F5F" stroke-width="20" stroke-linecap="round" stroke-miterlimit="10" x1="311.508" y1="316.498" x2="311.508" y2="382.498"/>
	
		<line fill="none" stroke="#605F5F" stroke-width="20" stroke-linecap="round" stroke-miterlimit="10" x1="366.508" y1="294.498" x2="366.508" y2="416.498"/>
</g>
<g id="Layer_7">
	<g>
		<path fill="#605F5F" d="M446.486,234.329c0,0,27.92,7.274,38.041,21.837c10.613,15.275,1.934,31.341-15.292,22.607
			c-8.305-4.209-15.342-9.967-18.938-21.963C447.104,246.152,446.486,234.329,446.486,234.329z"/>
		<path fill="#605F5F" d="M318.652,209.387c0,0,95.582,6.912,144.839,32.495"/>
	</g>
	<g>
		<path fill="#605F5F" stroke="#5F5F5F" stroke-width="8" stroke-miterlimit="10" d="M446.486,234.329
			c0,0,27.92,7.274,38.041,21.837c10.613,15.275,1.934,31.341-15.292,22.607c-8.305-4.209-15.342-9.967-18.938-21.963
			C447.104,246.152,446.486,234.329,446.486,234.329z"/>
		<path fill="#605F5F" stroke="#5F5F5F" stroke-width="8" stroke-miterlimit="10" d="M318.652,209.387
			c0,0,95.582,6.912,144.839,32.495"/>
	</g>
</g>
<g id="Layer_5">
	<path fill="#FFFFFF" stroke="#605F5F" stroke-width="16" stroke-miterlimit="10" d="M254.587,121.596
		c0,0,29.911-31.604,47.997-46.498c25.499-20.999,47.41-18.129,61.497-4.5C380,86,379,115,379,115s38.74,15.018,37.578,44.094
		c-1.499,37.498-73.496,50.998-73.496,50.998s64.169,48.104,41.998,77.996C371.747,306.062,339,310,339,310
		s-15.417,45.584-56.9,42.002c-5.287-0.457-19.592-0.286-28.19-9.79c-11.267-12.452-18.82-64.624-18.82-64.624
		s-17.999,49.497-49.498,59.997c-43.443,14.481-53.997-44.998-53.997-44.998s-48.651-13.603-55.497-32.998
		c-17.999-50.998,68.997-70.497,68.997-70.497s-45.331-19.753-52.498-37.498C80.388,121.37,174.468,27.583,222,68
		C234.106,78.293,254.587,121.596,254.587,121.596z"/>
</g>
<g id="Layer_6" display="none">
	<path display="inline" fill="none" stroke="#000000" stroke-width="8" stroke-miterlimit="10" d="M279.188,178.268
		c47.426-41.555,89.788-56.347,89.788-56.347"/>
	<path display="inline" fill="none" stroke="#000000" stroke-width="8" stroke-miterlimit="10" d="M329.085,304.727
		c0,0-14.018-25.045-24.937-40.836C293.553,248.562,270,226,270,226"/>
	<path display="inline" fill="none" stroke="#000000" stroke-width="8" stroke-miterlimit="10" d="M125.513,274.549
		C170.146,226.874,209,212,209,212"/>
	<path display="inline" fill="none" stroke="#000000" stroke-width="8" stroke-miterlimit="10" d="M213,166
		c0,0-13.837-20.578-24.695-32.224c-17.201-18.449-26.724-24.18-26.724-24.18"/>
</g>
<g id="Layer_2">
	<path fill="#FFFFFF" stroke="#605F5F" stroke-width="16" stroke-miterlimit="10" d="M76.821,20.715c0,0,31.872-10.841,60.483-5.65
		c28.609,5.194,46.205,24.701,46.205,24.701s24.284-4.506,47.734,3.377c29.444,9.896,29.063,19.106,11.171,31.94
		c-18.039,12.935-50.552,22.777-50.552,22.777s-40.426,98.19-81.609,89.022C62.384,176.227,56.317,78.386,56.317,78.386
		s-36.162-31.343-43-44.545C6.479,20.643,19.74,9.683,45.442,10.305C63.323,10.74,76.821,20.715,76.821,20.715z"/>
</g>
</svg>
